HIERARCHY
ROOT root
{
	OFFSET 0.000000 0.000000 0.000000
	CHANNELS 6 Xposition Yposition Zposition Zrotation Yrotation Xrotation
	JOINT lhip
	{
		OFFSET 0.058581 -0.082280 -0.017664
		CHANNELS 3 Zrotation Yrotation Xrotation
		JOINT lknee
		{
			OFFSET 0.043451 -0.386469 0.008037
			CHANNELS 3 Zrotation Yrotation Xrotation
			JOINT lankle
			{
				OFFSET -0.014790 -0.426874 -0.037428
				CHANNELS 3 Zrotation Yrotation Xrotation
				JOINT ltoe
				{
					OFFSET 0.041054 -0.060286 0.122042
					CHANNELS 3 Zrotation Yrotation Xrotation
					End Site
					{
						OFFSET 0.000000 0.000000 0.000000
					}
				}
			}
		}
	}
	JOINT rhip
	{
		OFFSET -0.060310 -0.090513 -0.013543
		CHANNELS 3 Zrotation Yrotation Xrotation
		JOINT rknee
		{
			OFFSET -0.043257 -0.383688 -0.004843
			CHANNELS 3 Zrotation Yrotation Xrotation
			JOINT rankle
			{
				OFFSET 0.019056 -0.420046 -0.034562
				CHANNELS 3 Zrotation Yrotation Xrotation
				JOINT rtoe
				{
					OFFSET -0.034840 -0.062106 0.130323
					CHANNELS 3 Zrotation Yrotation Xrotation
					End Site
					{
						OFFSET 0.000000 0.000000 0.000000
					}
				}
			}
		}
	}
	JOINT lowerback
	{
		OFFSET 0.004439 0.124404 -0.038385
		CHANNELS 3 Zrotation Yrotation Xrotation
		JOINT upperback
		{
			OFFSET 0.004488 0.137956 0.026820
			CHANNELS 3 Zrotation Yrotation Xrotation
			JOINT chest
			{
				OFFSET -0.002265 0.056032 0.002855
				CHANNELS 3 Zrotation Yrotation Xrotation
				JOINT lowerneck
				{
					OFFSET -0.013390 0.211636 -0.033468
					CHANNELS 3 Zrotation Yrotation Xrotation
					JOINT upperneck
					{
						OFFSET 0.010113 0.088937 0.050410
						CHANNELS 3 Zrotation Yrotation Xrotation
						End Site
						{
							OFFSET 0.000000 0.000000 0.000000
						}
					}
				}
				JOINT lclavicle
				{
					OFFSET 0.071702 0.114000 -0.018898
					CHANNELS 3 Zrotation Yrotation Xrotation
					JOINT lshoulder
					{
						OFFSET 0.122921 0.045205 -0.019046
						CHANNELS 3 Zrotation Yrotation Xrotation
						JOINT lelbow
						{
							OFFSET 0.255332 -0.015649 -0.022946
							CHANNELS 3 Zrotation Yrotation Xrotation
							JOINT lwrist
							{
								OFFSET 0.265709 0.012698 -0.007375
								CHANNELS 3 Zrotation Yrotation Xrotation
								End Site
								{
									OFFSET 0.000000 0.000000 0.000000
								}
							}
						}
					}
				}
				JOINT rclavicle
				{
					OFFSET -0.082954 0.112472 -0.023707
					CHANNELS 3 Zrotation Yrotation Xrotation
					JOINT rshoulder
					{
						OFFSET -0.113228 0.046853 -0.008472
						CHANNELS 3 Zrotation Yrotation Xrotation
						JOINT relbow
						{
							OFFSET -0.260127 -0.014369 -0.031269
							CHANNELS 3 Zrotation Yrotation Xrotation
							JOINT rwrist
							{
								OFFSET -0.269108 0.006794 -0.006027
								CHANNELS 3 Zrotation Yrotation Xrotation
								End Site
								{
									OFFSET 0.000000 0.000000 0.000000
								}
							}
						}
					}
				}
			}
		}
	}
}
MOTION
Frames: 13
Frame Time: 0.033333
2.316419 0.597038 0.989453 -7.708449 5.842272 85.803150 2.360171 5.212798 7.629238 -6.310760 1.375680 -5.963841 4.415440 11.095079 -8.580824 0.000000 -0.000000 0.000000 -7.121767 -3.606656 -11.063341 1.348933 -7.995159 20.172088 9.795386 -10.057491 -7.234784 0.000000 -0.000000 0.000000 -0.810553 -0.394926 9.584026 1.051384 -1.902840 5.544657 1.712105 -2.297176 2.741879 4.735391 -1.229837 3.370886 8.342147 -0.348343 -6.801532 -13.514890 3.722337 8.097931 -32.618288 4.860565 20.654707 -87.224222 -57.813804 109.999604 12.778659 -30.408731 0.730971 11.700953 0.840822 6.879520 29.713827 -3.804288 24.009546 85.727915 57.894235 105.361658 -12.187280 28.542619 6.910041 
2.315842 0.601107 0.989722 -8.992708 6.193875 85.906423 2.701301 5.578849 7.320211 -6.201396 2.141424 -6.129062 4.508651 11.107430 -8.542477 0.000000 -0.000000 0.000000 -6.328374 -3.655765 -10.976474 1.261475 -7.956090 20.207229 8.931780 -8.832208 -9.569643 0.000000 -0.000000 0.000000 -0.886790 -0.253592 10.068732 1.000724 -2.117588 5.191840 1.635496 -2.309072 2.821648 4.850897 -0.669307 3.232526 8.310025 -0.059226 -7.149438 -13.461466 3.684977 8.240443 -32.771421 5.288083 20.763014 -87.391320 -58.231733 110.768804 14.181775 -30.161927 -0.287626 11.781246 0.925599 7.048246 29.923405 -4.077480 23.687558 85.652338 57.907047 106.262524 -12.890559 28.451918 5.432306 
2.315596 0.605303 0.989815 -10.574478 6.260767 86.259900 2.557155 5.630573 6.698963 -6.055031 3.262989 -6.298558 4.699368 11.674229 -8.406070 0.000000 -0.000000 0.000000 -5.658527 -3.460213 -11.308874 0.849503 -8.686909 21.445762 7.921123 -10.103922 -11.116872 0.000000 -0.000000 0.000000 -1.112142 -0.221089 9.991601 0.814065 -1.904162 4.959748 1.553944 -2.278943 2.789677 4.738193 -0.238176 3.094345 8.084882 0.227834 -6.794956 -13.410968 3.558638 8.626985 -32.821147 5.383705 20.633067 -87.647232 -58.431999 111.133628 14.267552 -30.101327 -0.570317 11.714678 0.921809 7.314352 30.394725 -4.237021 23.634037 85.229479 58.036815 106.121202 -12.909081 28.301226 5.172354 
2.314601 0.609369 0.990192 -12.421086 6.205794 86.266270 2.465507 5.840771 6.500746 -5.998459 4.256621 -6.425836 5.014680 12.281243 -8.314561 0.000000 -0.000000 0.000000 -4.790468 -3.786433 -10.652994 0.436875 -9.760894 23.788582 6.670248 -11.693213 -12.725460 0.000000 -0.000000 0.000000 -1.471491 -0.103782 9.901006 0.597234 -1.821635 4.641051 1.447314 -2.235439 2.744592 4.556543 0.133367 3.300116 7.598691 0.906587 -5.283986 -13.227431 3.272039 9.210121 -32.836341 5.443797 20.265257 -88.068147 -58.477988 111.878735 14.372583 -29.621720 -0.746546 11.572347 1.048163 7.763917 30.982026 -4.522229 23.528370 84.860157 58.079531 106.141205 -12.923373 28.207561 4.889759 
2.314130 0.611580 0.990743 -13.770184 6.268635 86.162029 2.536829 5.934625 6.558575 -5.977644 4.852602 -6.639831 5.137516 12.835691 -8.136724 0.000000 -0.000000 0.000000 -4.147445 -3.698743 -10.022053 0.345474 -10.602975 25.435179 6.103468 -12.572798 -13.421683 0.000000 -0.000000 0.000000 -1.475654 -0.112003 9.894269 0.472853 -1.654992 4.353055 1.322493 -2.098311 2.645017 4.369677 0.374238 3.797766 7.369895 1.368062 -4.407521 -13.135514 3.159261 9.521102 -32.858752 5.456846 20.067071 -88.334457 -58.542852 112.210715 14.054707 -29.620627 -1.033608 11.447566 1.230281 8.042818 31.383166 -4.816256 23.500101 84.487338 58.194714 105.898032 -13.105094 28.178143 4.880175 
2.313318 0.614072 0.991211 -15.408853 6.060030 85.992078 2.316421 6.070434 6.692624 -5.934148 5.724923 -6.895265 5.221451 13.382716 -7.953283 0.000000 -0.000000 0.000000 -3.549873 -3.983016 -8.771330 0.014721 -11.647588 27.450347 5.261920 -13.644711 -14.349461 0.000000 -0.000000 0.000000 -1.827950 -0.040048 9.568666 0.348818 -1.648014 4.293166 1.245639 -2.030327 2.784725 4.221990 0.824054 4.281625 7.065849 1.996285 -3.911808 -13.013680 3.085241 9.535529 -32.838312 5.461571 19.974838 -88.619870 -58.637933 112.436882 14.018116 -29.622771 -1.496495 11.355576 1.322834 7.959633 31.629812 -4.755608 23.600573 84.199768 58.050948 105.656230 -12.853962 28.167720 4.523876 
2.312353 0.616685 0.991501 -17.080853 5.957510 85.833403 2.260133 6.215764 6.781303 -5.895958 6.619242 -7.043927 5.263315 13.853015 -7.865477 0.000000 -0.000000 0.000000 -2.867766 -4.409632 -7.227711 -0.410194 -12.703299 28.858179 4.596437 -14.768117 -15.086822 0.000000 -0.000000 0.000000 -2.033194 0.078015 9.152642 0.298770 -1.748951 4.452779 1.227039 -1.907278 2.892298 3.970293 1.210064 4.635520 6.836357 2.781589 -4.329880 -13.002373 3.044210 9.247908 -32.794570 5.492933 19.882986 -88.765210 -58.399350 112.622672 13.780140 -29.437571 -1.504580 11.321779 1.405520 7.634410 31.646961 -4.812916 23.730139 84.103920 57.984134 105.462184 -12.890236 28.066845 4.518726 
2.311087 0.619311 0.991394 -18.807881 5.741957 85.758449 2.103086 6.328782 6.805354 -5.855781 7.614725 -7.200291 5.324830 14.230223 -7.747796 0.000000 -0.000000 0.000000 -2.387154 -4.957219 -5.529260 -0.671780 -13.533075 29.572607 4.260534 -15.474129 -15.594061 0.000000 -0.000000 0.000000 -2.275094 0.302954 8.584877 0.222484 -1.852628 4.704395 1.252453 -1.879665 3.002315 3.836795 1.538415 4.717508 6.572831 3.604973 -5.024339 -13.021471 2.925660 9.147212 -32.874069 5.668394 19.811036 -88.850910 -58.485118 112.885556 14.009547 -29.271394 -1.670037 11.190364 1.492256 7.457432 31.935956 -4.943819 23.756703 84.068397 58.024004 105.644894 -12.994884 27.948882 4.423803 
2.310044 0.621975 0.991348 -20.609932 5.468119 85.597165 1.861377 6.517592 6.941396 -5.771284 8.629879 -7.421967 5.331189 14.576360 -7.620956 0.000000 -0.000000 0.000000 -2.086950 -5.562686 -3.646622 -0.828710 -13.967359 29.592801 4.209902 -16.044296 -15.660132 0.000000 -0.000000 0.000000 -2.411728 0.533815 8.096767 0.096896 -1.968978 4.965271 1.270927 -1.843405 2.958921 3.576158 1.794305 4.877535 6.320894 4.586576 -5.600933 -13.121223 2.775128 9.164442 -32.883436 5.860637 19.690038 -88.933122 -58.528964 112.863107 13.896675 -29.221316 -1.786409 11.173474 1.629798 7.452492 31.952373 -5.053980 23.752518 84.039355 57.994296 105.287953 -12.759905 27.919667 4.643337 
2.307879 0.626379 0.991259 -23.011002 5.186347 85.521637 1.822190 6.695326 6.905592 -5.893748 9.889538 -7.635203 5.328269 15.029582 -7.365157 0.000000 -0.000000 0.000000 -1.595443 -5.876822 -1.557833 -0.779069 -14.141547 28.844531 3.961169 -16.362025 -16.296840 0.000000 -0.000000 0.000000 -2.595175 0.769790 7.540046 0.046550 -2.050333 4.982447 1.329924 -1.723469 2.817286 3.334957 2.436489 5.085835 5.926585 5.559578 -5.602318 -13.121508 2.582534 9.320228 -32.957727 6.107083 19.618114 -89.035749 -58.641895 113.174687 13.865068 -29.098266 -2.005595 10.986862 1.741907 7.677526 32.333560 -5.169350 23.726802 83.499245 58.112860 105.115258 -12.958802 27.890387 4.112816 
2.306219 0.630290 0.991170 -24.892267 4.895227 85.499278 1.750703 6.928158 6.754504 -5.984012 10.775467 -7.704566 5.374380 15.422333 -7.123241 0.000000 -0.000000 0.000000 -1.355815 -6.114149 -0.038897 -0.588780 -13.929555 27.600890 3.854102 -16.449562 -16.568379 0.000000 -0.000000 0.000000 -2.614644 0.909736 7.082201 -0.050075 -2.127701 4.862721 1.274878 -1.675138 2.615857 2.987149 2.789525 5.398977 5.562227 6.534669 -5.040293 -13.086995 2.452949 9.586931 -32.806659 6.322492 19.598541 -88.784611 -58.587027 113.325083 13.463534 -28.283685 -1.960160 10.924816 1.783246 7.993275 32.456813 -5.216149 23.638868 83.462905 58.137720 105.164685 -12.847756 27.764103 3.968763 
2.304898 0.634479 0.991240 -26.712496 4.584204 85.399316 1.641010 7.046133 6.668906 -6.043735 11.838110 -7.809876 5.288641 15.646195 -6.915094 0.000000 -0.000000 0.000000 -1.234997 -6.302995 1.398348 -0.440488 -13.684611 25.923064 3.927610 -16.078286 -16.576781 0.000000 -0.000000 0.000000 -2.518593 1.082295 6.782551 -0.136271 -2.217938 4.679950 1.285365 -1.678721 2.450865 2.553504 3.220422 5.600338 5.082986 7.335268 -4.147741 -13.147996 2.328668 9.768012 -32.882942 6.391954 19.487355 -89.223365 -58.704079 113.355554 13.474211 -29.238734 -2.067492 10.718891 1.713408 8.216521 32.510377 -5.258849 23.479443 83.454115 58.266852 105.083164 -12.409217 27.887469 4.091117 
2.303432 0.639440 0.991292 -28.538771 4.260639 85.408373 1.533493 7.188978 6.396287 -6.095757 12.811996 -7.848838 5.332899 15.982087 -6.639952 0.000000 -0.000000 0.000000 -1.201862 -6.422034 2.376022 -0.267254 -13.158341 24.029229 4.013867 -15.588813 -15.916379 0.000000 -0.000000 0.000000 -2.415797 1.198119 6.324725 -0.214550 -2.285406 4.624265 1.264243 -1.678089 2.378711 2.214166 3.583264 5.953671 4.716195 8.110064 -3.851568 -13.121298 2.316423 9.817770 -32.831968 6.456841 19.546810 -89.341670 -58.692397 113.625163 13.698235 -29.260223 -2.297716 10.584506 1.610373 8.406241 32.626444 -5.131002 23.560881 83.439073 58.145912 105.155652 -13.182067 27.986697 3.659872 
